<svg width="744" height="395" viewBox="0 0 744 395" fill="none" xmlns="http://www.w3.org/2000/svg">
<path d="M36.7615 61.9797C38.0834 50.3028 46.386 42.1395 55.6634 35.832C83.2847 17.0529 117.531 8.6823 150.252 4.52562C192.051 -0.784337 236.088 1.88504 275.871 16.3C301.824 25.7035 333.637 41.9415 335.097 73.439C335.939 91.6019 321.895 110.324 308.831 121.521C281.62 144.845 247.64 157.202 213.022 164.444C167.698 173.926 119.338 177.013 73.3052 171.178C56.7954 169.085 39.6296 166.201 23.9633 160.388C16.3402 157.559 3.43237 151.829 2.10791 142.313C1.14701 135.409 6.78723 129.068 11.7164 125.144C19.8491 118.669 30.1717 115.423 40.2268 113.487C78.965 106.029 120.429 109.971 158.522 118.922C201.744 129.078 238.384 150.54 275.241 174.525C316.547 201.406 358.714 226.672 405.192 243.714C452.81 261.174 504.862 270.368 555.502 271.831C605.262 273.268 659.027 266.662 702.189 239.973C715.074 232.006 727.777 221.628 735.11 208.076C742.887 193.702 743.994 175.824 740.111 160.152C737.203 148.417 730.877 137.968 722.115 129.672C711.11 119.253 698.357 114.834 684.626 109.471" stroke="white" stroke-width="3" stroke-linecap="round"/>
<path d="M260.75 79.7002C260.75 84.4743 259.165 89.442 258.229 94.0736C252.23 123.787 245.813 153.415 239.721 183.11C225.325 253.279 210.13 323.337 193.411 393" stroke="white" stroke-width="3" stroke-linecap="round"/>
<path d="M347.935 168.303C350.765 168.618 351.114 171.806 354.669 169.642C357.186 168.11 362.111 163.498 362.111 160.23C362.111 158.363 361.246 164.842 362.859 165.783C368.795 169.245 377.918 157.45 380.58 153.969C389.799 141.913 396.547 125.843 398.813 110.81C399.39 106.974 398.756 111.078 397.789 112.818C394.028 119.587 391.64 126.242 389.598 133.728C387.682 140.752 380.43 169.406 395.19 169.406C402.395 169.406 407.093 163.303 410.311 157.671" stroke="white" stroke-width="3" stroke-linecap="round"/>
<path d="M372.035 134.28C388.311 134.28 404.639 133.571 420.944 133.571" stroke="white" stroke-width="3" stroke-linecap="round"/>
<path d="M429.969 150.524C428.784 149.399 426.791 149.079 425.233 149.4C423.429 149.772 421.829 150.825 420.535 152.103C418.707 153.909 417.026 156.122 416.09 158.53C415.293 160.583 414.319 165.28 417.151 166.36C420.02 167.454 423.304 164.797 425.012 162.824C427.875 159.517 429.704 155.237 430.569 150.979C430.721 150.23 430.896 147.966 430.985 148.725C431.185 150.421 431.294 152.095 431.636 153.782C432.238 156.755 433.063 159.747 434.363 162.496C435.51 164.92 437.151 167.603 439.831 168.526C441.5 169.1 443.166 168.913 444.062 167.345" stroke="white" stroke-width="3" stroke-linecap="round"/>
<path d="M451.79 151.092C451.79 156.694 451.367 162.279 451.336 167.875C451.334 168.25 451.336 169.374 451.336 168.999C451.336 168.325 451.435 167.686 451.639 167.042C452.636 163.889 454.748 160.841 456.69 158.208C457.698 156.842 458.831 155.547 460.062 154.376C460.929 153.551 461.91 152.714 463.08 152.368C463.747 152.17 463.8 152.515 463.951 153.126C464.279 154.445 464.444 155.809 464.494 157.167C464.615 160.425 464.56 163.733 464.229 166.979C464.138 167.869 463.984 168.75 463.793 169.624C463.755 169.8 463.928 168.832 463.964 168.684C464.619 165.971 465.938 163.74 467.525 161.46C469.531 158.579 472.068 155.619 474.9 153.517C475.599 152.998 476.395 152.458 477.287 152.368C477.943 152.302 478.115 152.808 478.272 153.353C478.983 155.824 479.057 158.38 479.156 160.93C479.231 162.876 478.967 165.347 479.819 167.162C480.584 168.792 482.833 169.174 484.415 168.74C486.221 168.246 487.234 167.118 488.134 165.552C488.2 165.437 488.728 164.373 488.728 164.958" stroke="white" stroke-width="3" stroke-linecap="round"/>
<path d="M365.641 143.25C364.718 143.418 363.954 144.939 363.62 145.662C363.031 146.936 362.733 148.371 363.14 149.729" stroke="white" stroke-width="3" stroke-linecap="round"/>
</svg>
